<svg width="38" height="36" viewBox="0 0 38 36" fill="none" xmlns="http://www.w3.org/2000/svg">
<g clip-path="url(#clip0_106_108)">
<path d="M10.3765 23.158C10.7586 22.775 11.3783 22.775 11.7616 23.158C12.1061 23.5046 12.137 24.0438 11.8572 24.4277L12.2281 24.6972C12.2335 24.6637 12.2322 24.6307 12.2406 24.5959L13.224 20.484C13.4929 19.3604 14.6049 18.481 15.757 18.481H27.6252C28.7773 18.481 29.8901 19.3604 30.1586 20.4831L31.1433 24.5959C31.1516 24.6307 31.1504 24.6637 31.1571 24.6985L31.5266 24.4281C31.2481 24.0442 31.2777 23.5051 31.6231 23.1584C32.0056 22.7754 32.6253 22.7754 33.0074 23.1584C33.3903 23.5419 33.3895 24.1631 33.0074 24.5465C32.6624 24.8927 32.1242 24.9224 31.7413 24.6424L31.4531 25.0392C31.9551 25.3122 32.3021 25.84 32.3021 26.4504V30.5451C32.3021 31.4309 31.5792 32.1559 30.6952 32.1559H30.4597V33.0894C30.4597 34.3649 29.4287 35.3989 28.1567 35.3989C26.8848 35.3989 25.8533 34.3649 25.8533 33.0894V32.1559H17.5318V33.0894C17.5318 34.3649 16.5008 35.3989 15.2296 35.3989C13.9568 35.3989 12.9258 34.3649 12.9258 33.0894V32.1559H12.6899C11.8063 32.1559 11.0835 31.4313 11.0835 30.5451V26.4504C11.0835 25.84 11.4301 25.3122 11.9312 25.0392L11.643 24.6424C11.2601 24.9224 10.7222 24.8927 10.3769 24.5465C9.9944 24.1627 9.9944 23.5415 10.3765 23.158ZM26.1001 28.1218C26.1001 28.5651 26.4618 28.9268 26.9036 28.9268H30.3252C30.7675 28.9268 31.1291 28.5651 31.1291 28.1218V27.2411C31.1291 26.7974 30.7675 26.4353 30.3252 26.4353H26.9036C26.4613 26.4353 26.1001 26.7974 26.1001 27.2411V28.1218ZM18.5945 30.3116H24.7902C25.0249 30.3116 25.2153 30.1203 25.2153 29.8854C25.2153 29.6502 25.0249 29.4589 24.7902 29.4589H18.5945C18.3598 29.4589 18.169 29.6497 18.169 29.8854C18.169 30.1203 18.3594 30.3116 18.5945 30.3116ZM18.5945 28.7991H24.7902C25.0249 28.7991 25.2153 28.6087 25.2153 28.373C25.2153 28.1373 25.0249 27.9464 24.7902 27.9464H18.5945C18.3598 27.9464 18.169 28.1373 18.169 28.373C18.169 28.6087 18.3594 28.7991 18.5945 28.7991ZM18.5945 27.2876H24.7902C25.0249 27.2876 25.2153 27.0971 25.2153 26.8614C25.2153 26.6257 25.0249 26.4349 24.7902 26.4349H18.5945C18.3598 26.4349 18.169 26.6257 18.169 26.8614C18.169 27.0971 18.3594 27.2876 18.5945 27.2876ZM30.0354 24.8387L29.0562 20.7485C28.9121 20.1462 28.2432 19.6175 27.6252 19.6175H15.7579C15.1403 19.6175 14.4713 20.1462 14.3272 20.7485L13.3497 24.8387H30.0354ZM12.2556 28.1218C12.2556 28.5651 12.6164 28.9268 13.0582 28.9268H16.4811C16.9229 28.9268 17.2846 28.5651 17.2846 28.1218V27.2411C17.2846 26.7974 16.9229 26.4353 16.4811 26.4353H13.0582C12.6164 26.4353 12.2556 26.7974 12.2556 27.2411V28.1218Z" fill="#00B8B9"/>
<path d="M5.61439 22.4725L28.6436 0.188477L30.7783 2.40541L6.54893 25.8498V35.7117H0.398781V22.4725H5.61439ZM29.8868 2.68838L28.2891 1.02945L25.1222 4.09406L27.5199 4.97857L29.8868 2.68838ZM26.8697 5.60773L24.4724 4.7228L22.106 7.01299L24.5033 7.89792L26.8697 5.60773ZM23.8536 8.52666L21.4558 7.64173L19.0889 9.93192L21.4867 10.8164L23.8536 8.52666ZM20.8365 11.4452L18.4392 10.5611L16.0727 12.8513L18.4701 13.7354L20.8365 11.4452ZM17.8195 14.3645L15.423 13.4796L13.0557 15.7689L15.4526 16.6547L17.8195 14.3645ZM14.8029 17.2843L12.4059 16.3994L10.0395 18.6891L12.4368 19.5741L14.8029 17.2843ZM9.42023 22.4921L11.7867 20.202L9.38933 19.3175L7.02289 21.6076L9.42023 22.4921Z" fill="#00B8B9"/>
<path d="M6.16141 35.0859H37.7436V35.7117H6.16141V35.0859Z" fill="#00B8B9"/>
</g>
<defs>
<clipPath id="clip0_106_108">
<rect width="38" height="36" fill="white" transform="matrix(-1 0 0 1 38 0)"/>
</clipPath>
</defs>
</svg>
