<svg width="28" height="23" viewBox="0 0 28 23" fill="none" xmlns="http://www.w3.org/2000/svg">
<g clip-path="url(#clip0_121_418)">
<path d="M16.0709 19.205C15.8959 18.6012 15.7792 17.9687 15.7792 17.3362C15.7792 16.2725 16.0417 15.2375 16.5375 14.3175C15.8667 13.6562 15.8667 12.5637 16.5375 11.8737L16.8 11.615C17.4709 10.9537 18.5792 10.9537 19.25 11.5862C19.3084 11.5575 19.3959 11.5287 19.4542 11.4712C19.3667 11.27 19.3084 11.0112 19.3084 10.7812V10.4075C19.3084 9.45873 20.0959 8.68248 21.0584 8.68248H23.6834C23.8292 8.68248 24.0042 8.71123 24.15 8.73998C23.975 8.53873 23.8 8.36623 23.625 8.16498C23.5667 8.10748 23.5084 8.10748 23.45 8.04998C23.4792 8.02123 23.4792 7.99248 23.5084 7.96373C23.7125 7.96373 23.9167 7.96373 24.0917 7.96373C24.5875 7.96373 25.0834 7.96373 25.5792 7.96373C26.075 7.96373 26.3959 7.64748 26.425 7.15873C26.425 6.84248 26.425 6.49748 26.425 6.18123C26.3959 5.72123 26.1042 5.40498 25.6375 5.40498C25.4625 5.40498 25.2875 5.40498 25.1125 5.40498C24.15 5.40498 23.4792 6.49748 23.4792 6.49748C23.4209 6.64123 23.3334 6.75623 23.2167 6.92873C23.1 6.52623 23.0125 6.18123 22.925 5.86498C22.5167 4.42748 21.875 3.07623 21 1.86873C20.3875 1.00623 19.5125 0.718728 18.55 0.546228C16.8 0.258728 15.0209 0.22998 13.2709 0.22998C11.4917 0.22998 9.7417 0.258728 7.9917 0.546228C7.0292 0.718728 6.1542 1.03498 5.5417 1.86873C4.6667 3.10498 4.02503 4.42748 3.6167 5.86498C3.5292 6.18123 3.4417 6.52623 3.32503 6.92873C3.20837 6.72748 3.12087 6.61248 3.06253 6.49748C3.06253 6.49748 2.3917 5.40498 1.4292 5.40498C1.2542 5.40498 1.0792 5.40498 0.904203 5.40498C0.437536 5.43373 0.145866 5.74998 0.116699 6.18123C0.116699 6.49748 0.116699 6.84248 0.116699 7.15873C0.116699 7.64748 0.466702 7.96373 0.962535 7.96373C1.45837 7.96373 1.9542 7.96373 2.45003 7.96373C2.6542 7.96373 2.85837 7.96373 3.03337 7.96373C3.06253 7.99248 3.06254 8.02123 3.0917 8.04998C3.03337 8.07873 2.94587 8.10748 2.9167 8.16498C1.66253 9.34373 0.991701 10.7812 1.02087 12.5062C1.05003 13.5412 1.13754 14.5475 1.2542 15.5825C1.3417 16.3587 1.5167 17.135 1.89587 17.8537C2.0417 18.17 2.24587 18.4 2.59587 18.4575C2.77087 18.4862 2.77087 18.6012 2.77087 18.7162C2.77087 19.1475 2.77087 19.55 2.77087 19.9812C2.77087 20.585 3.12087 20.93 3.73337 20.93C4.25837 20.93 4.7542 20.93 5.2792 20.93C5.95004 20.93 6.27087 20.585 6.27087 19.9525C6.27087 19.6362 6.27087 19.2912 6.27087 18.9462C8.63337 19.1187 10.9667 19.205 13.3 19.205C14.2042 19.2625 15.1375 19.2337 16.0709 19.205ZM4.81253 7.21623C5.1917 5.66373 5.77504 4.22623 6.5917 2.84623C6.65004 2.75998 6.6792 2.70248 6.73754 2.67373C6.79587 2.61623 6.8542 2.58748 6.9417 2.55873C7.4667 2.32873 9.0417 1.86873 13.2417 1.83998C17.4417 1.86873 19.0167 2.32873 19.5417 2.55873C19.6292 2.58748 19.6875 2.61623 19.7459 2.67373C19.8042 2.73123 19.8625 2.78873 19.8917 2.84623C20.7084 4.19748 21.2917 5.66373 21.6709 7.21623C21.7 7.33123 21.7 7.44623 21.7292 7.50373C18.9 7.27373 16.0417 7.12998 13.2125 7.12998C10.3834 7.12998 7.5542 7.24498 4.69587 7.50373C4.7542 7.44623 4.78337 7.33123 4.81253 7.21623ZM5.25003 13.8C4.2292 13.8 3.38337 12.9662 3.38337 11.96C3.38337 10.9537 4.2292 10.12 5.25003 10.12C6.27087 10.12 7.1167 10.9537 7.1167 11.96C7.08753 12.9662 6.27087 13.8 5.25003 13.8ZM22.9834 17.365C22.9834 17.6812 22.7209 17.94 22.4 17.94C22.0792 17.94 21.8167 17.6812 21.8167 17.365C21.8167 17.3362 21.8167 17.3362 21.8167 17.3075L20.4167 15.9275L20.3584 15.87C20.3 15.8125 20.3 15.755 20.3584 15.6975L20.7375 15.3237C20.7959 15.2662 20.8542 15.2662 20.9125 15.3237L20.9709 15.3812L21.2917 15.6975L22.3709 16.7612C22.4 16.7612 22.4 16.7612 22.4292 16.7612C22.7209 16.7612 22.9834 17.02 22.9834 17.365ZM26.8625 14.145L27.475 13.5412C27.7375 13.2825 27.7375 12.88 27.475 12.6212L27.2125 12.3625C26.95 12.1037 26.5417 12.1037 26.2792 12.3625L25.6667 12.9662C24.9375 12.42 24.0334 12.0462 23.0709 11.9312V11.4425H23.6834C24.0334 11.4425 24.3542 11.155 24.3542 10.7812V10.4075C24.3542 10.0625 24.0625 9.74623 23.6834 9.74623H22.3709H21.0584C20.7084 9.74623 20.3875 10.0337 20.3875 10.4075V10.7812C20.3875 11.1262 20.6792 11.4425 21.0584 11.4425H21.6709V11.9312C20.7084 12.0462 19.8334 12.42 19.075 12.9662L18.4917 12.3912C18.2292 12.1325 17.8209 12.1325 17.5584 12.3912L17.2959 12.65C17.0334 12.9087 17.0334 13.3112 17.2959 13.57L17.9084 14.1737C17.2667 15.065 16.8584 16.1575 16.8584 17.365C16.8584 20.355 19.3375 22.7987 22.3709 22.7987C25.4042 22.7987 27.8834 20.355 27.8834 17.365C27.9125 16.1575 27.5334 15.0362 26.8625 14.145ZM22.4 20.8725C20.4167 20.8725 18.7834 19.2912 18.7834 17.3075C18.7834 15.3525 20.3875 13.7425 22.4 13.7425C24.3834 13.7425 26.0167 15.3237 26.0167 17.3075C26.0167 19.2912 24.3834 20.8725 22.4 20.8725Z" fill="#00B8B9"/>
</g>
<defs>
<clipPath id="clip0_121_418">
<rect width="28" height="23" fill="white"/>
</clipPath>
</defs>
</svg>
